<svg width="332" height="332" viewBox="0 0 332 332" fill="none" xmlns="http://www.w3.org/2000/svg">
    <path d="M226.986 145.154C229.734 149.321 231.002 154.289 230.587 159.261L64.717 160.54H53.8298L35.2574 131.758L22.577 110.651H205.519L213.936 125.362L226.986 145.154Z" fill="white" fill-opacity="0.6"/>
    <path d="M22.577 110.651C19.9591 105.591 18.4333 100.038 18.0984 94.3519L17.966 92.1029H214.577L211.578 93.3007C204.703 96.0474 201.845 104.23 205.519 110.651H22.577Z" fill="white" fill-opacity="0.3"/>
    <path d="M11.9146 239.912L53.1894 159.261L217.779 158.622H230.587C230.587 165.34 228.928 171.955 225.757 177.881L192.979 239.128C191.592 241.721 189.746 244.041 187.53 245.977C183.085 249.862 177.378 252.004 171.47 252.004H9C9 247.8 9.99892 243.656 11.9146 239.912Z" fill="white"/>
    <path d="M71.7617 323.639L70.9878 325.142C66.3777 334.095 53.6482 334.332 48.7064 325.558L15.2213 271.831H100.156L71.7617 323.639Z" fill="white" fill-opacity="0.6"/>
    <path d="M15.2213 271.831C11.559 265.955 9.42723 259.257 9.02026 252.348L9 252.004H127.479L122.996 252.031L120.403 252.414C113.953 253.366 108.299 257.224 105.064 262.877L100.156 271.831H15.2213Z" fill="white" fill-opacity="0.3"/>
    <path d="M20.922 80.6726L55.7457 13.8317C57.8464 9.79968 60.9806 6.39643 64.8285 3.96931C68.9394 1.37629 73.7019 0 78.5641 0H296.293C299.365 0 302.347 1.03009 304.762 2.92508L305.976 3.87793C308.517 5.87157 310 8.9198 310 12.1467C310 13.8315 309.595 15.4916 308.818 16.9873L276.234 79.7478C274.848 82.4177 272.973 84.8046 270.707 86.785C266.312 90.6256 260.67 92.7425 254.831 92.7425H17.966C17.966 88.5404 18.9799 84.4002 20.922 80.6726Z" fill="white"/>
</svg>