<svg width="1294" height="258" viewBox="0 0 1294 258" fill="none" xmlns="http://www.w3.org/2000/svg">
<g filter="url(#filter0_d_570_5)">
<path d="M360.08 124.74L337.64 176H207.4L203 171.38L269 22H323.56L328.18 26.62L287.04 119.9H355.46L360.08 124.74ZM480.796 22L485.416 26.84L419.636 176H364.856L360.456 171.38L426.236 22H480.796ZM509.603 22H555.143L581.543 81.4L607.723 22H668.663L673.283 26.84L612.563 164.12L607.503 176H561.963L535.563 116.6L509.383 176H448.443L443.823 171.16L509.603 22ZM675.367 73.04L697.808 22H874.248L879.308 27.06L856.868 78.1H795.928L752.807 176H698.907V175.78L693.847 170.94L732.567 83.16V82.94L727.507 78.1H680.427L675.367 73.04ZM838.903 170.94L847.923 150.7H891.043L895.883 155.76L887.083 176H843.523L838.903 171.16V170.94Z" fill="white" fill-opacity="0.7" shape-rendering="crispEdges"/>
<path d="M1086.69 27.06L1021.13 176H913.114L908.934 171.6V171.38L931.594 119.9H984.614L1027.73 22H1081.85L1086.69 27.06ZM1151.6 85.36H1260.94L1265.56 90.2L1227.5 176.44L1050.62 176.22H1050.18L1046 171.82V171.6L1065.8 127.16H1188.12L1192.08 118.14L1187.46 113.52H1078.12L1073.72 108.68L1111.78 22.44H1288.66L1293.28 27.28L1273.7 71.72H1151.38L1147.2 80.96L1151.6 85.36Z" fill="white" shape-rendering="crispEdges"/>
</g>
<g filter="url(#filter1_d_570_5)">
<path d="M147.014 106.935C148.867 109.747 149.722 113.098 149.443 116.453L37.5766 117.316H30.234L17.7085 97.8972L9.1566 83.6564H132.536L138.213 93.5818L147.014 106.935Z" fill="white" fill-opacity="0.3"/>
<path d="M9.1566 83.6564C7.391 80.2421 6.36202 76.4956 6.13615 72.6591L6.04681 71.1417H138.645L136.622 71.9499C131.986 73.8031 130.058 79.324 132.536 83.6564H9.1566Z" fill="white" fill-opacity="0.6"/>
<path d="M1.96569 170.869L29.8021 116.453L140.804 116.022H149.443C149.443 120.555 148.324 125.018 146.185 129.016L124.079 170.339C123.143 172.089 121.898 173.654 120.404 174.961C117.406 177.582 113.557 179.027 109.573 179.027H0C0 176.19 0.673688 173.394 1.96569 170.869Z" fill="white"/>
<path d="M42.3277 227.359L41.8057 228.373C38.6966 234.413 30.1116 234.574 26.7787 228.654L4.19574 192.404H61.4774L42.3277 227.359Z" fill="white" fill-opacity="0.3"/>
<path d="M4.19574 192.404C1.72582 188.44 0.288131 183.921 0.013666 179.259L0 179.027H79.9043L76.8809 179.045L75.1321 179.304C70.7824 179.946 66.9688 182.548 64.7872 186.363L61.4774 192.404H4.19574Z" fill="white" fill-opacity="0.6"/>
<path d="M8.04044 63.4297L31.5262 18.3323C32.9429 15.6118 35.0567 13.3157 37.6518 11.6781C40.4242 9.92858 43.6362 9 46.9153 9H193.756C195.827 9 197.839 9.695 199.467 10.9735L200.286 11.6164C202 12.9615 203 15.0182 203 17.1953C203 18.3321 202.727 19.4522 202.203 20.4613L180.227 62.8058C179.293 64.6071 178.028 66.2175 176.5 67.5537C173.536 70.145 169.731 71.5733 165.793 71.5733H6.04681C6.04681 68.7381 6.73066 65.9447 8.04044 63.4297Z" fill="white"/>
</g>
<defs>
<filter id="filter0_d_570_5" x="192" y="22" width="1101.27" height="179.438" filterUnits="userSpaceOnUse" color-interpolation-filters="sRGB">
<feFlood flood-opacity="0" result="BackgroundImageFix"/>
<feColorMatrix in="SourceAlpha" type="matrix" values="0 0 0 0 0 0 0 0 0 0 0 0 0 0 0 0 0 0 127 0" result="hardAlpha"/>
<feOffset dx="-11" dy="25"/>
<feComposite in2="hardAlpha" operator="out"/>
<feColorMatrix type="matrix" values="0 0 0 0 1 0 0 0 0 1 0 0 0 0 1 0 0 0 0.1 0"/>
<feBlend mode="normal" in2="BackgroundImageFix" result="effect1_dropShadow_570_5"/>
<feBlend mode="normal" in="SourceGraphic" in2="effect1_dropShadow_570_5" result="shape"/>
</filter>
<filter id="filter1_d_570_5" x="0" y="9" width="217" height="249" filterUnits="userSpaceOnUse" color-interpolation-filters="sRGB">
<feFlood flood-opacity="0" result="BackgroundImageFix"/>
<feColorMatrix in="SourceAlpha" type="matrix" values="0 0 0 0 0 0 0 0 0 0 0 0 0 0 0 0 0 0 127 0" result="hardAlpha"/>
<feOffset dx="14" dy="25"/>
<feComposite in2="hardAlpha" operator="out"/>
<feColorMatrix type="matrix" values="0 0 0 0 1 0 0 0 0 1 0 0 0 0 1 0 0 0 0.2 0"/>
<feBlend mode="normal" in2="BackgroundImageFix" result="effect1_dropShadow_570_5"/>
<feBlend mode="normal" in="SourceGraphic" in2="effect1_dropShadow_570_5" result="shape"/>
</filter>
</defs>
</svg>
